<svg xmlns="http://www.w3.org/2000/svg" viewBox="0 0 64 64">
  <!-- Navy blue circular background -->
  <circle cx="32" cy="32" r="32" fill="#1e3a8a"/>
  <!-- Outer gear ring -->
  <path d="M32 4
    L33.8 10.2 L39.4 7.6 L40 14 L46.2 14 L44.5 20 L50.4 22.5 L46.7 27.4
    L51.4 31.2 L46.7 35 L50.4 39.9 L44.5 42.4 L46.2 48.4 L40 48.4
    L39.4 54.8 L33.8 52.2 L32 58.4
    L30.2 52.2 L24.6 54.8 L24 48.4 L17.8 48.4 L19.5 42.4 L13.6 39.9
    L17.3 35 L12.6 31.2 L17.3 27.4 L13.6 22.5 L19.5 20 L17.8 14 L24 14
    L24.6 7.6 L30.2 10.2 Z"
    fill="none" stroke="#d4a017" stroke-width="1.2" opacity="0.6"/>
  <!-- Gold 8-pointed compass star -->
  <polygon
    points="32,13 34.3,27.5 41.2,23.8 37.5,29.7 52,32 37.5,34.3 41.2,40.2 34.3,36.5 32,51 29.7,36.5 22.8,40.2 26.5,34.3 12,32 26.5,29.7 22.8,23.8 29.7,27.5"
    fill="#d4a017"/>
  <!-- Center circle overlay -->
  <circle cx="32" cy="32" r="5.5" fill="#1e3a8a"/>
  <circle cx="32" cy="32" r="3" fill="#d4a017"/>
</svg>
